<mxfile host="app.diagrams.net" modified="2023-12-11T11:20:35.871Z" agent="Mozilla/5.0 (Macintosh; Intel Mac OS X 10_15_7) AppleWebKit/537.36 (KHTML, like Gecko) Chrome/120.0.0.0 Safari/537.36" etag="1c5TcKbtI0O8lcd9prP9" version="22.1.7" type="device">
  <diagram id="C5RBs43oDa-KdzZeNtuy" name="Page-1">
    <mxGraphModel dx="1026" dy="579" grid="1" gridSize="13" guides="1" tooltips="1" connect="1" arrows="1" fold="1" page="1" pageScale="1" pageWidth="827" pageHeight="1169" math="0" shadow="0">
      <root>
        <mxCell id="WIyWlLk6GJQsqaUBKTNV-0" />
        <mxCell id="WIyWlLk6GJQsqaUBKTNV-1" parent="WIyWlLk6GJQsqaUBKTNV-0" />
        <mxCell id="tPIC1OqXLJnQeQmbdjp0-20" style="edgeStyle=orthogonalEdgeStyle;rounded=0;orthogonalLoop=1;jettySize=auto;html=1;entryX=0.5;entryY=0;entryDx=0;entryDy=0;endArrow=none;endFill=0;" parent="WIyWlLk6GJQsqaUBKTNV-1" source="WIyWlLk6GJQsqaUBKTNV-3" target="tPIC1OqXLJnQeQmbdjp0-12" edge="1">
          <mxGeometry relative="1" as="geometry" />
        </mxCell>
        <mxCell id="CsvrpFAp0Q9hTzOcX9_R-14" value="mc" style="edgeLabel;html=1;align=center;verticalAlign=middle;resizable=0;points=[];" vertex="1" connectable="0" parent="tPIC1OqXLJnQeQmbdjp0-20">
          <mxGeometry x="0.0038" relative="1" as="geometry">
            <mxPoint as="offset" />
          </mxGeometry>
        </mxCell>
        <mxCell id="WIyWlLk6GJQsqaUBKTNV-3" value="Tier" style="rounded=1;whiteSpace=wrap;html=1;fontSize=12;glass=0;strokeWidth=1;shadow=0;" parent="WIyWlLk6GJQsqaUBKTNV-1" vertex="1">
          <mxGeometry x="52" y="416" width="156" height="52" as="geometry" />
        </mxCell>
        <mxCell id="WIyWlLk6GJQsqaUBKTNV-7" value="Tierart" style="rounded=1;whiteSpace=wrap;html=1;fontSize=12;glass=0;strokeWidth=1;shadow=0;" parent="WIyWlLk6GJQsqaUBKTNV-1" vertex="1">
          <mxGeometry x="52" y="624" width="156" height="52" as="geometry" />
        </mxCell>
        <mxCell id="tPIC1OqXLJnQeQmbdjp0-15" style="edgeStyle=orthogonalEdgeStyle;rounded=0;orthogonalLoop=1;jettySize=auto;html=1;entryX=1;entryY=0.5;entryDx=0;entryDy=0;endArrow=none;endFill=0;" parent="WIyWlLk6GJQsqaUBKTNV-1" source="tPIC1OqXLJnQeQmbdjp0-0" target="tPIC1OqXLJnQeQmbdjp0-14" edge="1">
          <mxGeometry relative="1" as="geometry" />
        </mxCell>
        <mxCell id="CsvrpFAp0Q9hTzOcX9_R-4" value="mc" style="edgeLabel;html=1;align=center;verticalAlign=middle;resizable=0;points=[];" vertex="1" connectable="0" parent="tPIC1OqXLJnQeQmbdjp0-15">
          <mxGeometry x="0.1795" y="3" relative="1" as="geometry">
            <mxPoint x="5" y="-3" as="offset" />
          </mxGeometry>
        </mxCell>
        <mxCell id="tPIC1OqXLJnQeQmbdjp0-0" value="Gehegeplan" style="rounded=1;whiteSpace=wrap;html=1;fontSize=12;glass=0;strokeWidth=1;shadow=0;" parent="WIyWlLk6GJQsqaUBKTNV-1" vertex="1">
          <mxGeometry x="364" y="208" width="156" height="52" as="geometry" />
        </mxCell>
        <mxCell id="tPIC1OqXLJnQeQmbdjp0-23" style="edgeStyle=orthogonalEdgeStyle;rounded=0;orthogonalLoop=1;jettySize=auto;html=1;entryX=0.5;entryY=0;entryDx=0;entryDy=0;endArrow=none;endFill=0;" parent="WIyWlLk6GJQsqaUBKTNV-1" source="tPIC1OqXLJnQeQmbdjp0-1" target="tPIC1OqXLJnQeQmbdjp0-9" edge="1">
          <mxGeometry relative="1" as="geometry" />
        </mxCell>
        <mxCell id="CsvrpFAp0Q9hTzOcX9_R-12" value="mc" style="edgeLabel;html=1;align=center;verticalAlign=middle;resizable=0;points=[];" vertex="1" connectable="0" parent="tPIC1OqXLJnQeQmbdjp0-23">
          <mxGeometry x="0.0976" relative="1" as="geometry">
            <mxPoint as="offset" />
          </mxGeometry>
        </mxCell>
        <mxCell id="tPIC1OqXLJnQeQmbdjp0-25" style="edgeStyle=orthogonalEdgeStyle;rounded=0;orthogonalLoop=1;jettySize=auto;html=1;endArrow=none;endFill=0;" parent="WIyWlLk6GJQsqaUBKTNV-1" source="tPIC1OqXLJnQeQmbdjp0-1" target="tPIC1OqXLJnQeQmbdjp0-13" edge="1">
          <mxGeometry relative="1" as="geometry" />
        </mxCell>
        <mxCell id="CsvrpFAp0Q9hTzOcX9_R-11" value="mc" style="edgeLabel;html=1;align=center;verticalAlign=middle;resizable=0;points=[];" vertex="1" connectable="0" parent="tPIC1OqXLJnQeQmbdjp0-25">
          <mxGeometry x="0.167" y="-1" relative="1" as="geometry">
            <mxPoint as="offset" />
          </mxGeometry>
        </mxCell>
        <mxCell id="tPIC1OqXLJnQeQmbdjp0-1" value="Futter" style="rounded=1;whiteSpace=wrap;html=1;fontSize=12;glass=0;strokeWidth=1;shadow=0;" parent="WIyWlLk6GJQsqaUBKTNV-1" vertex="1">
          <mxGeometry x="364" y="416" width="156" height="52" as="geometry" />
        </mxCell>
        <mxCell id="tPIC1OqXLJnQeQmbdjp0-18" style="edgeStyle=orthogonalEdgeStyle;rounded=0;orthogonalLoop=1;jettySize=auto;html=1;entryX=0.5;entryY=0;entryDx=0;entryDy=0;endArrow=none;endFill=0;" parent="WIyWlLk6GJQsqaUBKTNV-1" source="tPIC1OqXLJnQeQmbdjp0-2" target="tPIC1OqXLJnQeQmbdjp0-11" edge="1">
          <mxGeometry relative="1" as="geometry" />
        </mxCell>
        <mxCell id="CsvrpFAp0Q9hTzOcX9_R-7" value="mc" style="edgeLabel;html=1;align=center;verticalAlign=middle;resizable=0;points=[];" vertex="1" connectable="0" parent="tPIC1OqXLJnQeQmbdjp0-18">
          <mxGeometry x="-0.0911" y="2" relative="1" as="geometry">
            <mxPoint x="-2" as="offset" />
          </mxGeometry>
        </mxCell>
        <mxCell id="tPIC1OqXLJnQeQmbdjp0-2" value="Gehege" style="rounded=1;whiteSpace=wrap;html=1;fontSize=12;glass=0;strokeWidth=1;shadow=0;" parent="WIyWlLk6GJQsqaUBKTNV-1" vertex="1">
          <mxGeometry x="52" y="208" width="156" height="52" as="geometry" />
        </mxCell>
        <mxCell id="tPIC1OqXLJnQeQmbdjp0-3" value="Futtersorte" style="rounded=1;whiteSpace=wrap;html=1;fontSize=12;glass=0;strokeWidth=1;shadow=0;" parent="WIyWlLk6GJQsqaUBKTNV-1" vertex="1">
          <mxGeometry x="364" y="624" width="156" height="52" as="geometry" />
        </mxCell>
        <mxCell id="tPIC1OqXLJnQeQmbdjp0-28" style="edgeStyle=orthogonalEdgeStyle;rounded=0;orthogonalLoop=1;jettySize=auto;html=1;entryX=0.5;entryY=0;entryDx=0;entryDy=0;endArrow=none;endFill=0;" parent="WIyWlLk6GJQsqaUBKTNV-1" source="tPIC1OqXLJnQeQmbdjp0-4" target="tPIC1OqXLJnQeQmbdjp0-27" edge="1">
          <mxGeometry relative="1" as="geometry" />
        </mxCell>
        <mxCell id="CsvrpFAp0Q9hTzOcX9_R-5" value="1" style="edgeLabel;html=1;align=center;verticalAlign=middle;resizable=0;points=[];" vertex="1" connectable="0" parent="tPIC1OqXLJnQeQmbdjp0-28">
          <mxGeometry x="-0.2692" relative="1" as="geometry">
            <mxPoint as="offset" />
          </mxGeometry>
        </mxCell>
        <mxCell id="tPIC1OqXLJnQeQmbdjp0-4" value="Belegungsinfo" style="rounded=1;whiteSpace=wrap;html=1;fontSize=12;glass=0;strokeWidth=1;shadow=0;" parent="WIyWlLk6GJQsqaUBKTNV-1" vertex="1">
          <mxGeometry x="52" width="156" height="52" as="geometry" />
        </mxCell>
        <mxCell id="tPIC1OqXLJnQeQmbdjp0-24" style="edgeStyle=orthogonalEdgeStyle;rounded=0;orthogonalLoop=1;jettySize=auto;html=1;entryX=0.5;entryY=0;entryDx=0;entryDy=0;endArrow=none;endFill=0;" parent="WIyWlLk6GJQsqaUBKTNV-1" source="tPIC1OqXLJnQeQmbdjp0-9" target="tPIC1OqXLJnQeQmbdjp0-3" edge="1">
          <mxGeometry relative="1" as="geometry" />
        </mxCell>
        <mxCell id="CsvrpFAp0Q9hTzOcX9_R-13" value="1" style="edgeLabel;html=1;align=center;verticalAlign=middle;resizable=0;points=[];" vertex="1" connectable="0" parent="tPIC1OqXLJnQeQmbdjp0-24">
          <mxGeometry x="0.0188" relative="1" as="geometry">
            <mxPoint as="offset" />
          </mxGeometry>
        </mxCell>
        <mxCell id="tPIC1OqXLJnQeQmbdjp0-9" value="besteht" style="rhombus;whiteSpace=wrap;html=1;" parent="WIyWlLk6GJQsqaUBKTNV-1" vertex="1">
          <mxGeometry x="416" y="520" width="52" height="52" as="geometry" />
        </mxCell>
        <mxCell id="tPIC1OqXLJnQeQmbdjp0-19" style="edgeStyle=orthogonalEdgeStyle;rounded=0;orthogonalLoop=1;jettySize=auto;html=1;entryX=0.5;entryY=0;entryDx=0;entryDy=0;endArrow=none;endFill=0;" parent="WIyWlLk6GJQsqaUBKTNV-1" source="tPIC1OqXLJnQeQmbdjp0-11" target="WIyWlLk6GJQsqaUBKTNV-3" edge="1">
          <mxGeometry relative="1" as="geometry" />
        </mxCell>
        <mxCell id="CsvrpFAp0Q9hTzOcX9_R-8" value="1" style="edgeLabel;html=1;align=center;verticalAlign=middle;resizable=0;points=[];" vertex="1" connectable="0" parent="tPIC1OqXLJnQeQmbdjp0-19">
          <mxGeometry x="0.1599" y="2" relative="1" as="geometry">
            <mxPoint x="-2" as="offset" />
          </mxGeometry>
        </mxCell>
        <mxCell id="tPIC1OqXLJnQeQmbdjp0-11" value="lebt in" style="rhombus;whiteSpace=wrap;html=1;" parent="WIyWlLk6GJQsqaUBKTNV-1" vertex="1">
          <mxGeometry x="104" y="312" width="52" height="52" as="geometry" />
        </mxCell>
        <mxCell id="tPIC1OqXLJnQeQmbdjp0-22" style="edgeStyle=orthogonalEdgeStyle;rounded=0;orthogonalLoop=1;jettySize=auto;html=1;entryX=0.5;entryY=0;entryDx=0;entryDy=0;endArrow=none;endFill=0;" parent="WIyWlLk6GJQsqaUBKTNV-1" source="tPIC1OqXLJnQeQmbdjp0-12" target="WIyWlLk6GJQsqaUBKTNV-7" edge="1">
          <mxGeometry relative="1" as="geometry" />
        </mxCell>
        <mxCell id="CsvrpFAp0Q9hTzOcX9_R-15" value="1" style="edgeLabel;html=1;align=center;verticalAlign=middle;resizable=0;points=[];" vertex="1" connectable="0" parent="tPIC1OqXLJnQeQmbdjp0-22">
          <mxGeometry x="0.0188" y="1" relative="1" as="geometry">
            <mxPoint x="-1" as="offset" />
          </mxGeometry>
        </mxCell>
        <mxCell id="tPIC1OqXLJnQeQmbdjp0-12" value="hat" style="rhombus;whiteSpace=wrap;html=1;" parent="WIyWlLk6GJQsqaUBKTNV-1" vertex="1">
          <mxGeometry x="104" y="520" width="52" height="52" as="geometry" />
        </mxCell>
        <mxCell id="tPIC1OqXLJnQeQmbdjp0-26" style="edgeStyle=orthogonalEdgeStyle;rounded=0;orthogonalLoop=1;jettySize=auto;html=1;entryX=1;entryY=0.5;entryDx=0;entryDy=0;endArrow=none;endFill=0;" parent="WIyWlLk6GJQsqaUBKTNV-1" source="tPIC1OqXLJnQeQmbdjp0-13" target="WIyWlLk6GJQsqaUBKTNV-3" edge="1">
          <mxGeometry relative="1" as="geometry" />
        </mxCell>
        <mxCell id="CsvrpFAp0Q9hTzOcX9_R-10" value="1" style="edgeLabel;html=1;align=center;verticalAlign=middle;resizable=0;points=[];" vertex="1" connectable="0" parent="tPIC1OqXLJnQeQmbdjp0-26">
          <mxGeometry x="-0.0283" y="4" relative="1" as="geometry">
            <mxPoint y="-4" as="offset" />
          </mxGeometry>
        </mxCell>
        <mxCell id="tPIC1OqXLJnQeQmbdjp0-13" value="hat" style="rhombus;whiteSpace=wrap;html=1;" parent="WIyWlLk6GJQsqaUBKTNV-1" vertex="1">
          <mxGeometry x="260" y="416" width="52" height="52" as="geometry" />
        </mxCell>
        <mxCell id="tPIC1OqXLJnQeQmbdjp0-17" value="1" style="edgeStyle=orthogonalEdgeStyle;rounded=0;orthogonalLoop=1;jettySize=auto;html=1;entryX=1;entryY=0.5;entryDx=0;entryDy=0;endArrow=none;endFill=0;" parent="WIyWlLk6GJQsqaUBKTNV-1" source="tPIC1OqXLJnQeQmbdjp0-14" target="tPIC1OqXLJnQeQmbdjp0-2" edge="1">
          <mxGeometry relative="1" as="geometry" />
        </mxCell>
        <mxCell id="tPIC1OqXLJnQeQmbdjp0-14" value="hat" style="rhombus;whiteSpace=wrap;html=1;" parent="WIyWlLk6GJQsqaUBKTNV-1" vertex="1">
          <mxGeometry x="260" y="208" width="52" height="52" as="geometry" />
        </mxCell>
        <mxCell id="tPIC1OqXLJnQeQmbdjp0-29" style="edgeStyle=orthogonalEdgeStyle;rounded=0;orthogonalLoop=1;jettySize=auto;html=1;entryX=0.5;entryY=0;entryDx=0;entryDy=0;endArrow=none;endFill=0;" parent="WIyWlLk6GJQsqaUBKTNV-1" source="tPIC1OqXLJnQeQmbdjp0-27" target="tPIC1OqXLJnQeQmbdjp0-2" edge="1">
          <mxGeometry relative="1" as="geometry" />
        </mxCell>
        <mxCell id="CsvrpFAp0Q9hTzOcX9_R-6" value="m" style="edgeLabel;html=1;align=center;verticalAlign=middle;resizable=0;points=[];" vertex="1" connectable="0" parent="tPIC1OqXLJnQeQmbdjp0-29">
          <mxGeometry x="0.3057" y="2" relative="1" as="geometry">
            <mxPoint x="-2" as="offset" />
          </mxGeometry>
        </mxCell>
        <mxCell id="tPIC1OqXLJnQeQmbdjp0-27" value="hat" style="rhombus;whiteSpace=wrap;html=1;" parent="WIyWlLk6GJQsqaUBKTNV-1" vertex="1">
          <mxGeometry x="104" y="104" width="52" height="52" as="geometry" />
        </mxCell>
        <mxCell id="CsvrpFAp0Q9hTzOcX9_R-21" style="edgeStyle=orthogonalEdgeStyle;rounded=0;orthogonalLoop=1;jettySize=auto;html=1;endArrow=none;endFill=0;" edge="1" parent="WIyWlLk6GJQsqaUBKTNV-1" source="CsvrpFAp0Q9hTzOcX9_R-16" target="CsvrpFAp0Q9hTzOcX9_R-18">
          <mxGeometry relative="1" as="geometry" />
        </mxCell>
        <mxCell id="CsvrpFAp0Q9hTzOcX9_R-23" value="1" style="edgeLabel;html=1;align=center;verticalAlign=middle;resizable=0;points=[];" vertex="1" connectable="0" parent="CsvrpFAp0Q9hTzOcX9_R-21">
          <mxGeometry relative="1" as="geometry">
            <mxPoint as="offset" />
          </mxGeometry>
        </mxCell>
        <mxCell id="CsvrpFAp0Q9hTzOcX9_R-16" value="Tierpfleger" style="rounded=1;whiteSpace=wrap;html=1;fontSize=12;glass=0;strokeWidth=1;shadow=0;" vertex="1" parent="WIyWlLk6GJQsqaUBKTNV-1">
          <mxGeometry x="364" width="156" height="52" as="geometry" />
        </mxCell>
        <mxCell id="CsvrpFAp0Q9hTzOcX9_R-22" style="edgeStyle=orthogonalEdgeStyle;rounded=0;orthogonalLoop=1;jettySize=auto;html=1;entryX=0.5;entryY=0;entryDx=0;entryDy=0;endArrow=none;endFill=0;" edge="1" parent="WIyWlLk6GJQsqaUBKTNV-1" source="CsvrpFAp0Q9hTzOcX9_R-18" target="tPIC1OqXLJnQeQmbdjp0-0">
          <mxGeometry relative="1" as="geometry" />
        </mxCell>
        <mxCell id="CsvrpFAp0Q9hTzOcX9_R-24" value="m" style="edgeLabel;html=1;align=center;verticalAlign=middle;resizable=0;points=[];" vertex="1" connectable="0" parent="CsvrpFAp0Q9hTzOcX9_R-22">
          <mxGeometry relative="1" as="geometry">
            <mxPoint as="offset" />
          </mxGeometry>
        </mxCell>
        <mxCell id="CsvrpFAp0Q9hTzOcX9_R-18" value="hat" style="rhombus;whiteSpace=wrap;html=1;" vertex="1" parent="WIyWlLk6GJQsqaUBKTNV-1">
          <mxGeometry x="416" y="104" width="52" height="52" as="geometry" />
        </mxCell>
      </root>
    </mxGraphModel>
  </diagram>
</mxfile>
